<?xml version="1.0" standalone="no"?>
<!DOCTYPE svg PUBLIC "-//W3C//DTD SVG 20010904//EN"
 "http://www.w3.org/TR/2001/REC-SVG-20010904/DTD/svg10.dtd">
<svg version="1.0" xmlns="http://www.w3.org/2000/svg"
 width="700.000000pt" height="700.000000pt" viewBox="0 0 700.000000 700.000000"
 preserveAspectRatio="xMidYMid meet">
<metadata>
Created by potrace 1.11, written by Peter Selinger 2001-2013
</metadata>
<g transform="translate(0.000000,700.000000) scale(0.100000,-0.100000)"
fill="#000000" stroke="none">
<path d="M3268 6995 c-2 -2 -48 -6 -103 -9 -55 -4 -115 -9 -135 -11 -19 -2
-62 -6 -95 -10 -33 -3 -71 -8 -85 -10 -14 -2 -61 -9 -106 -15 -44 -6 -91 -13
-105 -15 -37 -8 -130 -23 -169 -29 -31 -5 -81 -14 -160 -31 -14 -2 -38 -7 -55
-11 -596 -119 -1094 -337 -1257 -549 -21 -27 -42 -54 -46 -60 -12 -16 -59
-120 -68 -150 -1 -5 -12 -41 -23 -78 -17 -58 -34 -164 -56 -357 -3 -25 -7 -61
-10 -80 -2 -19 -9 -73 -15 -120 -6 -47 -12 -98 -15 -115 -2 -16 -9 -70 -15
-120 -6 -49 -13 -107 -15 -127 -3 -21 -7 -56 -10 -78 -3 -22 -7 -59 -10 -82
-3 -24 -8 -54 -10 -68 -2 -14 -7 -54 -11 -90 -3 -36 -8 -73 -9 -82 -2 -9 -6
-44 -10 -77 -3 -33 -7 -68 -9 -78 -4 -17 -15 -107 -21 -168 -3 -27 -30 -237
-39 -310 -3 -16 -8 -57 -12 -90 -3 -33 -8 -67 -9 -75 -15 -85 -19 -360 -19
-1660 -1 -828 0 -1511 2 -1517 3 -10 54 -13 212 -13 l208 0 4 -202 c4 -154 9
-216 21 -255 59 -180 237 -286 399 -239 112 32 213 128 244 232 25 87 26 94
28 279 l2 180 1747 3 1747 2 0 -173 c0 -239 24 -323 117 -414 148 -143 388
-159 556 -37 58 42 100 99 127 171 26 70 28 84 29 286 l1 167 209 0 c191 0
209 2 212 18 8 33 2 3028 -5 3097 -4 39 -9 84 -11 100 -6 58 -17 147 -20 169
-2 11 -6 53 -10 91 -3 39 -8 77 -10 85 -2 8 -7 51 -10 95 -4 44 -8 82 -10 85
-1 3 -6 41 -9 85 -4 44 -9 87 -11 95 -2 8 -6 44 -10 80 -3 36 -7 76 -9 90 -3
14 -7 54 -11 90 -3 36 -8 79 -10 95 -6 45 -17 146 -20 180 -1 17 -6 55 -9 85
-9 71 -14 113 -21 175 -7 62 -13 117 -19 175 -3 25 -10 88 -16 140 -5 52 -13
118 -16 145 -16 141 -114 361 -202 450 -181 187 -556 358 -1037 475 -71 18
-141 34 -155 37 -14 2 -79 15 -145 28 -140 28 -406 72 -485 80 -30 3 -68 7
-85 10 -16 2 -64 6 -105 10 -41 3 -95 8 -120 11 -45 6 -587 14 -592 9z m1773
-444 c3 -98 -1 -374 -5 -378 -3 -3 -643 -6 -1423 -6 -1303 0 -1421 2 -1458 17
-52 22 -83 52 -106 101 -51 111 6 245 118 278 38 11 309 14 1460 14 l1413 0 1
-26z m569 -954 c63 -15 88 -29 113 -63 18 -24 40 -121 51 -224 4 -30 8 -68 11
-85 2 -16 7 -48 10 -70 3 -22 10 -71 15 -110 6 -38 12 -87 15 -107 12 -95 16
-125 20 -148 2 -14 7 -50 10 -80 4 -30 9 -62 10 -70 1 -8 6 -40 10 -70 4 -30
9 -62 10 -70 2 -8 6 -44 10 -80 4 -36 8 -67 10 -70 2 -3 6 -30 9 -60 4 -30 8
-66 10 -80 6 -33 15 -106 21 -155 3 -22 9 -69 14 -105 6 -36 13 -87 17 -115 4
-27 9 -57 11 -65 27 -122 -47 -233 -172 -256 -22 -4 -1061 -7 -2310 -7 -2248
0 -2271 0 -2315 20 -25 11 -57 31 -71 44 -55 50 -89 158 -68 215 4 11 10 45
13 75 4 30 9 65 12 79 2 14 6 39 8 55 4 29 9 62 22 155 3 25 8 59 10 75 8 66
17 131 20 149 3 17 12 84 30 216 2 19 6 44 9 55 2 11 7 45 10 75 3 30 7 66 10
80 2 14 7 45 10 70 4 25 8 56 10 70 4 30 15 106 20 140 5 35 34 247 40 294 5
34 12 75 19 111 12 58 67 100 151 115 22 4 956 8 2075 9 1638 0 2046 -2 2090
-12z m-4045 -3088 c107 -21 214 -95 279 -194 114 -171 89 -396 -59 -539 -93
-90 -188 -131 -310 -135 -132 -4 -249 43 -341 136 -114 115 -153 261 -112 423
34 138 179 274 329 309 83 20 116 20 214 0z m4085 7 c128 -14 269 -112 339
-236 46 -80 59 -241 26 -335 -37 -110 -130 -210 -245 -263 -65 -31 -87 -36
-167 -38 -146 -5 -250 35 -350 135 -89 89 -127 181 -125 306 1 175 97 317 266
396 55 26 169 50 201 43 6 -2 30 -5 55 -8z"/>
</g>
</svg>
